<svg xmlns="http://www.w3.org/2000/svg" viewBox="0 0 640 360" role="img" aria-labelledby="title desc">
  <title id="title">Emergency collaboration scene</title>
  <desc id="desc">A calm mobile emergency response scene with a patient, responders, AED cabinet, and signal lines.</desc>
  <defs>
    <linearGradient id="bg" x1="36" x2="600" y1="16" y2="340" gradientUnits="userSpaceOnUse">
      <stop stop-color="#0d2227"/>
      <stop offset="0.58" stop-color="#12353c"/>
      <stop offset="1" stop-color="#1c4d55"/>
    </linearGradient>
    <linearGradient id="floor" x1="86" x2="564" y1="258" y2="338" gradientUnits="userSpaceOnUse">
      <stop stop-color="#dff4f2" stop-opacity="0.2"/>
      <stop offset="1" stop-color="#66e0c6" stop-opacity="0.04"/>
    </linearGradient>
    <linearGradient id="red" x1="352" x2="534" y1="58" y2="210" gradientUnits="userSpaceOnUse">
      <stop stop-color="#ff7a87"/>
      <stop offset="1" stop-color="#d21d3a"/>
    </linearGradient>
    <filter id="soft" x="-20%" y="-20%" width="140%" height="140%" color-interpolation-filters="sRGB">
      <feDropShadow dx="0" dy="18" stdDeviation="18" flood-color="#02090b" flood-opacity="0.32"/>
    </filter>
  </defs>
  <rect width="640" height="360" rx="42" fill="url(#bg)"/>
  <path d="M70 271h500l-72 54H142L70 271Z" fill="url(#floor)"/>
  <path d="M104 68h248a26 26 0 0 1 26 26v154H78V94a26 26 0 0 1 26-26Z" fill="#f6fffe" opacity=".08"/>
  <path d="M118 94h84v122h-84zM224 94h118v122H224z" fill="#d7fffb" opacity=".1"/>
  <path d="M386 74h116a24 24 0 0 1 24 24v116a24 24 0 0 1-24 24H386z" fill="#071216" opacity=".25"/>
  <g filter="url(#soft)">
    <rect x="404" y="91" width="98" height="126" rx="20" fill="url(#red)"/>
    <path d="M453 115v68M419 149h68" stroke="#fff" stroke-width="17" stroke-linecap="round"/>
    <rect x="429" y="197" width="48" height="7" rx="3.5" fill="#fff" opacity=".65"/>
  </g>
  <path d="M106 253c56-40 112-52 168-35 34 10 67 9 100-2 42-15 84-9 126 18" fill="none" stroke="#8ff3df" stroke-width="5" stroke-linecap="round" stroke-dasharray="1 14" opacity=".58"/>
  <g filter="url(#soft)">
    <rect x="158" y="204" width="188" height="58" rx="29" fill="#f7fffd"/>
    <circle cx="203" cy="182" r="31" fill="#f7fffd"/>
    <path d="M196 181h14l8-17 16 34 11-22h22" fill="none" stroke="#dc2740" stroke-width="8" stroke-linecap="round" stroke-linejoin="round"/>
  </g>
  <g filter="url(#soft)">
    <circle cx="344" cy="153" r="35" fill="#e8fffb"/>
    <path d="M344 121v64M312 153h64" stroke="#0f9f72" stroke-width="10" stroke-linecap="round"/>
    <path d="M326 224c9-45 28-62 56-50 20 9 27 28 20 58" fill="none" stroke="#e8fffb" stroke-width="18" stroke-linecap="round"/>
  </g>
  <g filter="url(#soft)">
    <circle cx="505" cy="258" r="28" fill="#d8ecff"/>
    <path d="M490 260h30M505 245v30" stroke="#2563eb" stroke-width="8" stroke-linecap="round"/>
    <path d="M455 285c26-44 58-54 96-32" fill="none" stroke="#d8ecff" stroke-width="15" stroke-linecap="round"/>
  </g>
  <g opacity=".78">
    <path d="M142 111c56-25 113-25 170 0" fill="none" stroke="#8ff3df" stroke-width="4" stroke-linecap="round"/>
    <path d="M154 130c47-19 95-19 143 0" fill="none" stroke="#8ff3df" stroke-width="4" stroke-linecap="round" opacity=".62"/>
    <path d="M168 149c36-12 73-12 110 0" fill="none" stroke="#8ff3df" stroke-width="4" stroke-linecap="round" opacity=".42"/>
  </g>
  <circle cx="98" cy="82" r="5" fill="#8ff3df" opacity=".85"/>
  <circle cx="543" cy="79" r="7" fill="#ff7a87" opacity=".82"/>
  <circle cx="566" cy="229" r="4" fill="#8ff3df" opacity=".7"/>
</svg>
